<?xml version="1.0" encoding="utf-8"?>
<!-- Generator: Adobe Illustrator 16.0.0, SVG Export Plug-In . SVG Version: 6.00 Build 0)  -->
<svg version="1.2" baseProfile="tiny" id="Layer_1" xmlns="http://www.w3.org/2000/svg" xmlns:xlink="http://www.w3.org/1999/xlink"
	 x="0px" y="0px" width="100px" height="100px" viewBox="0 0 100 100" xml:space="preserve">
<rect x="2.604" y="2.604" display="none" fill="none" stroke="#D14210" stroke-width="5" stroke-linecap="round" stroke-dasharray="10,14" width="94.792" height="94.792"/>
<line fill="none" stroke="#D14210" stroke-width="5" stroke-linecap="round" stroke-dasharray="10,14" x1="2.604" y1="2.632" x2="2.604" y2="15.982"/>
<line fill="none" stroke="#D14210" stroke-width="5" stroke-linecap="round" stroke-dasharray="10,14" x1="2.604" y1="30.638" x2="2.604" y2="43.988"/>
<line fill="none" stroke="#D14210" stroke-width="5" stroke-linecap="round" stroke-dasharray="10,14" x1="2.604" y1="58.644" x2="2.604" y2="71.994"/>
<line fill="none" stroke="#D14210" stroke-width="5" stroke-linecap="round" stroke-dasharray="10,14" x1="2.604" y1="86.649" x2="2.604" y2="100"/>
<line fill="none" stroke="#D14210" stroke-width="5" stroke-linecap="round" stroke-dasharray="10,14" x1="97.604" y1="2.632" x2="97.604" y2="15.982"/>
<line fill="none" stroke="#D14210" stroke-width="5" stroke-linecap="round" stroke-dasharray="10,14" x1="97.604" y1="30.638" x2="97.604" y2="43.988"/>
<line fill="none" stroke="#D14210" stroke-width="5" stroke-linecap="round" stroke-dasharray="10,14" x1="97.604" y1="58.644" x2="97.604" y2="71.994"/>
<line fill="none" stroke="#D14210" stroke-width="5" stroke-linecap="round" stroke-dasharray="10,14" x1="97.604" y1="86.649" x2="97.604" y2="100"/>
<line fill="none" stroke="#D14210" stroke-width="5" stroke-linecap="round" stroke-dasharray="10,14" x1="8.825" y1="97.5" x2="22.175" y2="97.5"/>
<line fill="none" stroke="#D14210" stroke-width="5" stroke-linecap="round" stroke-dasharray="10,14" x1="32.491" y1="97.5" x2="45.842" y2="97.5"/>
<line fill="none" stroke="#D14210" stroke-width="5" stroke-linecap="round" stroke-dasharray="10,14" x1="56.157" y1="97.5" x2="69.509" y2="97.5"/>
<line fill="none" stroke="#D14210" stroke-width="5" stroke-linecap="round" stroke-dasharray="10,14" x1="79.824" y1="97.5" x2="93.176" y2="97.5"/>
<line fill="none" stroke="#D14210" stroke-width="5" stroke-linecap="round" stroke-dasharray="10,14" x1="8.825" y1="2.5" x2="22.175" y2="2.5"/>
<line fill="none" stroke="#D14210" stroke-width="5" stroke-linecap="round" stroke-dasharray="10,14" x1="32.491" y1="2.5" x2="45.842" y2="2.5"/>
<line fill="none" stroke="#D14210" stroke-width="5" stroke-linecap="round" stroke-dasharray="10,14" x1="56.157" y1="2.5" x2="69.509" y2="2.5"/>
<line fill="none" stroke="#D14210" stroke-width="5" stroke-linecap="round" stroke-dasharray="10,14" x1="79.824" y1="2.5" x2="93.176" y2="2.5"/>
</svg>
